<svg xmlns="http://www.w3.org/2000/svg" width="39.708" height="40" viewBox="0 0 39.708 40">
  <g id="logo" transform="translate(-135.146 -30)">
    <g id="Polygon_1" data-name="Polygon 1" transform="translate(170 63) rotate(180)" fill="none">
      <path d="M15,0,30,30H0Z" stroke="none"/>
      <path d="M 15.00000095367432 0 L 1.9073486328125e-06 30 L 30 30 L 15.00000095367432 0 M 15.00000095367432 -6.708198547363281 L 17.68328094482422 -1.341640472412109 L 32.68328094482422 28.65835952758789 L 34.85410308837891 33 L 30 33 L 1.9073486328125e-06 33 L -4.854097366333008 33 L -2.683279037475586 28.65835952758789 L 12.31672096252441 -1.341640472412109 L 15.00000095367432 -6.708198547363281 Z" stroke="none" fill="#44ec93"/>
    </g>
    <g id="Polygon_2" data-name="Polygon 2" transform="translate(140 37)" fill="none">
      <path d="M15,0,30,30H0Z" stroke="none"/>
      <path d="M 15.00000095367432 0 L 1.9073486328125e-06 30 L 30 30 L 15.00000095367432 0 M 15.00000095367432 -6.708198547363281 L 17.68328094482422 -1.341640472412109 L 32.68328094482422 28.65835952758789 L 34.85410308837891 33 L 30 33 L 1.9073486328125e-06 33 L -4.854097366333008 33 L -2.683279037475586 28.65835952758789 L 12.31672096252441 -1.341640472412109 L 15.00000095367432 -6.708198547363281 Z" stroke="none" fill="#44ec93"/>
    </g>
  </g>
</svg>
